<svg width="200" height="200" viewBox="0 0 200 200" fill="none" xmlns="http://www.w3.org/2000/svg">
<g clip-path="url(#clip0_5_256)">
<g filter="url(#filter0_d_5_256)">
<path d="M133.66 31.7097C134.121 30.7074 124.539 52.0793 118.809 64.8559C117.893 66.8981 120.449 68.7097 122.086 67.1831L154.268 37.1662C154.94 36.5393 155.113 35.5417 154.692 34.7249L144.763 15.4921C143.979 13.9732 141.794 14.0167 141.079 15.5698C138.285 21.6487 133.181 32.7496 133.66 31.7097Z" fill="#34C88A"/>
<path fill-rule="evenodd" clip-rule="evenodd" d="M142.967 17.6029L136.03 32.6919C136.013 32.7313 135.992 32.7796 135.977 32.8133C135.929 32.9223 135.845 33.1104 135.731 33.3669C135.501 33.8818 135.142 34.6855 134.68 35.7168C133.757 37.7797 132.423 40.757 130.896 44.1645C128.2 50.1808 124.9 57.5394 122.193 63.5768L152.235 35.556L142.967 17.6029ZM138.75 14.4986C140.363 10.989 145.286 10.9132 147.042 14.3158L156.97 33.5486C157.919 35.3864 157.53 37.6308 156.017 39.0415L123.835 69.0584C120.201 72.4483 114.382 68.4614 116.469 63.8066C119.334 57.4183 123.162 48.8814 126.216 42.067C127.743 38.6596 129.076 35.6833 129.999 33.6216C130.46 32.5906 130.819 31.7892 131.047 31.2773C131.151 31.0437 131.227 30.8731 131.273 30.7688C131.273 30.7676 131.273 30.7665 131.272 30.7653C131.28 30.7482 131.289 30.7265 131.291 30.7219L131.302 30.6978C131.302 30.6995 131.301 30.7002 131.302 30.6978L138.75 14.4986ZM131.275 30.7738C132.488 34.0073 135.757 32.9905 135.935 32.8875C135.914 32.9263 135.861 33.0171 135.82 33.0815C135.543 33.4335 132.454 33.9302 131.116 31.5146C131.149 31.2352 131.233 30.8958 131.254 30.8313C131.26 30.8146 131.268 30.7925 131.275 30.7738Z" fill="white"/>
<path d="M155.004 63.9965C148.897 66.3928 133.298 72.2381 122.694 76.1972C120.555 76.996 118.921 74.2283 120.645 72.731L151.969 45.5308C152.524 45.049 153.294 44.9008 153.988 45.1423L172.931 51.7334C174.607 52.3167 174.796 54.5883 173.224 55.4125C168.711 57.778 161.231 61.5535 155.004 63.9965Z" fill="#34C88A"/>
<path fill-rule="evenodd" clip-rule="evenodd" d="M170.889 53.738C166.349 56.093 159.664 59.4135 154.068 61.6093C148.482 63.801 134.891 68.9019 124.489 72.7894L153.426 47.6619L170.889 53.738ZM153.65 47.4671L153.65 47.4676ZM174.414 57.6838C178.026 55.7905 177.516 50.6135 173.773 49.3114L154.831 42.7203C153.269 42.1769 151.536 42.5104 150.288 43.5946L118.964 70.7948C115.119 74.1331 118.731 80.4144 123.591 78.5996C134.185 74.6441 149.809 68.7898 155.941 66.3837C162.306 63.8863 169.89 60.055 174.414 57.6838Z" fill="white"/>
<path d="M146.43 35.517C140.294 41.7983 127.951 57.8092 124.348 62.5202C123.757 63.2931 123.799 64.3686 124.44 65.1011L126.555 67.5199C127.233 68.2956 128.368 68.4566 129.225 67.8843C134.79 64.1673 154.307 51.1268 158.538 48.2363C161.503 46.2111 164.387 44.5003 166.223 43.4542C167.28 42.8521 167.622 41.4734 166.945 40.4629L157.674 26.6214C156.925 25.5018 155.317 25.3968 154.428 26.4093L146.43 35.517Z" fill="#FF5065"/>
<path fill-rule="evenodd" clip-rule="evenodd" d="M155.915 28.6027L148.312 37.2603L148.265 37.309C142.401 43.3113 130.588 58.5892 126.65 63.7326L128.189 65.4928C134.226 61.4603 152.968 48.936 157.092 46.1188C159.914 44.191 162.656 42.5468 164.531 41.4678L155.915 28.6027ZM152.501 24.7172C154.502 22.4392 158.118 22.6754 159.805 25.1944L169.075 39.0359C170.601 41.3143 169.811 44.3612 167.493 45.6822C165.692 46.7082 162.872 48.3813 159.985 50.3538C155.739 53.2541 136.205 66.3059 130.65 70.0167C128.701 71.3182 126.134 70.9347 124.624 69.2079L122.509 66.789C121.076 65.15 120.969 62.7177 122.311 60.9625C125.862 56.3186 138.261 40.2269 144.548 33.7745L152.501 24.7172Z" fill="white"/>
<path d="M59.1934 150.057C58.7321 151.059 68.3145 129.688 74.044 116.911C74.9598 114.869 72.4035 113.057 70.7668 114.584L38.5848 144.601C37.9127 145.228 37.7396 146.225 38.1612 147.042L48.0896 166.275C48.8736 167.794 51.0595 167.75 51.7735 166.197C54.5684 160.118 59.6721 149.017 59.1934 150.057Z" fill="#FF5065"/>
<path fill-rule="evenodd" clip-rule="evenodd" d="M49.8858 164.164L56.8228 149.075C56.8393 149.036 56.8603 148.989 56.8752 148.955L56.8758 148.954C56.924 148.845 57.0078 148.656 57.1222 148.4C57.3519 147.885 57.7113 147.081 58.1728 146.05C59.0961 143.987 60.4299 141.01 61.957 137.602C64.6533 131.586 67.9527 124.227 70.66 118.19L40.6181 146.211L49.8858 164.164ZM54.1034 167.268C52.4899 170.778 47.5674 170.854 45.8109 167.451L35.8825 148.218C34.9338 146.38 35.3233 144.136 36.8357 142.725L69.0177 112.708C72.6521 109.319 78.4713 113.305 76.3839 117.96C73.5192 124.348 69.6913 132.885 66.6373 139.7C65.1102 143.107 63.7769 146.083 62.8542 148.145C62.3927 149.176 62.0344 149.978 61.806 150.49C61.7018 150.723 61.6258 150.894 61.5796 150.998C61.58 150.999 61.5805 151 61.5809 151.001C61.5734 151.019 61.5638 151.04 61.5617 151.045L61.5507 151.069C61.5515 151.067 61.5518 151.067 61.5507 151.069L54.1034 167.268ZM61.5777 150.993C60.3648 147.759 57.0956 148.776 56.9176 148.879C56.9392 148.84 56.992 148.75 57.0328 148.685C57.3103 148.333 60.399 147.837 61.7367 150.252C61.7037 150.532 61.6203 150.871 61.5987 150.936C61.5928 150.952 61.5847 150.974 61.5777 150.993Z" fill="white"/>
<path d="M37.8486 117.77C43.9561 115.374 59.555 109.529 70.1587 105.57C72.298 104.771 73.9322 107.539 72.2079 109.036L40.884 136.236C40.3291 136.718 39.5589 136.866 38.8648 136.625L19.9223 130.033C18.2457 129.45 18.0572 127.178 19.6295 126.354C24.1423 123.989 31.6219 120.213 37.8486 117.77Z" fill="#FF5065"/>
<path fill-rule="evenodd" clip-rule="evenodd" d="M21.9645 128.029C26.5044 125.674 33.1887 122.353 38.7852 120.158C44.3713 117.966 57.9618 112.865 68.364 108.977L39.427 134.105L21.9645 128.029ZM39.2027 134.3L39.2033 134.299ZM18.4389 124.083C14.8272 125.976 15.3375 131.153 19.0796 132.455L38.0221 139.046C39.5838 139.59 41.3169 139.256 42.5654 138.172L73.8893 110.972C77.7338 107.634 74.1224 101.352 69.2618 103.167C58.6676 107.123 43.0443 112.977 36.9119 115.383C30.5467 117.881 22.9627 121.712 18.4389 124.083Z" fill="white"/>
<path d="M46.4226 146.25C52.5589 139.969 64.9024 123.958 68.5046 119.247C69.0956 118.474 69.0536 117.398 68.4131 116.666L66.2982 114.247C65.6199 113.471 64.4846 113.31 63.6277 113.883C58.0629 117.6 38.5461 130.64 34.3146 133.531C31.3498 135.556 28.4657 137.267 26.6299 138.313C25.5733 138.915 25.2315 140.293 25.9082 141.304L35.1787 155.145C35.9285 156.265 37.5356 156.37 38.4247 155.358L46.4226 146.25Z" fill="#34C88A"/>
<path fill-rule="evenodd" clip-rule="evenodd" d="M36.9381 153.164L44.5407 144.507L44.5883 144.458C50.4519 138.456 62.2652 123.178 66.2033 118.034L64.6643 116.274C58.6274 120.307 39.8854 132.831 35.7611 135.648C32.9389 137.576 30.1972 139.22 28.3216 140.299L36.9381 153.164ZM40.3516 157.05C38.3511 159.328 34.7351 159.091 33.048 156.572L23.7776 142.731C22.2517 140.453 23.0422 137.406 25.3603 136.085C27.1608 135.059 29.9806 133.386 32.8682 131.413C37.114 128.513 56.6477 115.461 62.2034 111.75C64.152 110.449 66.7189 110.832 68.2287 112.559L70.3437 114.978C71.7767 116.617 71.8838 119.049 70.5417 120.804C66.9908 125.448 54.5917 141.54 48.3052 147.992L40.3516 157.05Z" fill="white"/>
<path d="M49.8269 129.336C35.615 113.082 37.2707 88.3838 53.525 74.1719L85.1634 46.509C101.418 32.297 126.115 33.9527 140.327 50.207C154.539 66.4613 152.884 91.1591 136.629 105.371L104.991 133.034C88.7366 147.246 64.0389 145.59 49.8269 129.336Z" fill="#764123"/>
<mask id="mask0_5_256" style="mask-type:alpha" maskUnits="userSpaceOnUse" x="39" y="35" width="112" height="109">
<path d="M49.827 129.336C34.9045 112.269 35.9841 86.9122 52.2384 72.7003L83.8768 45.0374C100.131 30.8255 125.405 33.14 140.327 50.207C155.25 67.274 154.17 92.6306 137.916 106.843L106.278 134.505C90.0233 148.717 64.7495 146.403 49.827 129.336Z" fill="#83553B"/>
</mask>
<g mask="url(#mask0_5_256)">
<path fill-rule="evenodd" clip-rule="evenodd" d="M33.1885 101.39C35.3059 91.5407 41.2153 81.5285 50.3117 73.5751L84.2651 43.888C93.3615 35.9346 104.073 31.4144 114.117 30.6307C124.161 29.8469 133.715 32.8089 140.054 40.0596L136.193 43.4355C131.163 37.6827 123.354 35.0543 114.516 35.7439C105.677 36.4336 95.9882 40.4507 87.641 47.7491L53.6876 77.4361C45.3404 84.7345 40.066 93.8009 38.2028 102.468C36.3396 111.135 37.9021 119.226 42.932 124.978L39.071 128.354C32.7314 121.104 31.0711 111.24 33.1885 101.39Z" fill="#FF5065"/>
<path fill-rule="evenodd" clip-rule="evenodd" d="M35.7618 104.333C37.8792 94.4838 43.7886 84.4716 52.885 76.5182L86.8384 46.8311C95.9348 38.8777 106.646 34.3576 116.69 33.5738C126.734 32.79 136.288 35.752 142.628 43.0027L138.767 46.3786C133.737 40.6258 125.927 37.9974 117.089 38.687C108.251 39.3767 98.5615 43.3938 90.2143 50.6922L56.2609 80.3792C47.9137 87.6776 42.6393 96.744 40.7761 105.411C38.9129 114.078 40.4754 122.169 45.5053 127.921L41.6443 131.297C35.3047 124.047 33.6444 114.183 35.7618 104.333Z" fill="white"/>
<path fill-rule="evenodd" clip-rule="evenodd" d="M38.3352 107.276C40.4525 97.4269 46.3619 87.4147 55.4583 79.4612L89.4117 49.7742C98.5081 41.8208 109.22 37.3006 119.263 36.5169C129.308 35.7331 138.861 38.6951 145.201 45.9458L141.34 49.3216C136.31 43.5689 128.5 40.9404 119.662 41.6301C110.824 42.3198 101.135 46.3369 92.7876 53.6352L58.8342 83.3223C50.487 90.6207 45.2126 99.6871 43.3494 108.354C41.4862 117.021 43.0487 125.112 48.0786 130.864L44.2176 134.24C37.878 126.99 36.2177 117.126 38.3352 107.276Z" fill="#34C88A"/>
<path fill-rule="evenodd" clip-rule="evenodd" d="M156.23 78.7961C154.113 88.6455 148.203 98.6577 139.107 106.611L105.154 136.298C96.0571 144.252 85.3457 148.772 75.3018 149.555C65.2577 150.339 55.7038 147.377 49.3642 140.127L53.2252 136.751C58.2551 142.503 66.0648 145.132 74.9028 144.442C83.7411 143.753 93.4304 139.735 101.778 132.437L135.731 102.75C144.078 95.4517 149.353 86.3853 151.216 77.7182C153.079 69.0513 151.516 60.9606 146.487 55.2079L150.348 51.832C156.687 59.0827 158.347 68.9464 156.23 78.7961Z" fill="#34C88A"/>
<path fill-rule="evenodd" clip-rule="evenodd" d="M153.657 75.853C151.539 85.7024 145.63 95.7146 136.534 103.668L102.58 133.355C93.4838 141.309 82.7724 145.829 72.7285 146.612C62.6844 147.396 53.1305 144.434 46.7909 137.184L50.6519 133.808C55.6818 139.56 63.4915 142.189 72.3296 141.499C81.1678 140.81 90.8571 136.792 99.2043 129.494L133.158 99.807C141.505 92.5086 146.779 83.4422 148.643 74.7751C150.506 66.1082 148.943 58.0176 143.913 52.2648L147.774 48.8889C154.114 56.1396 155.774 66.0034 153.657 75.853Z" fill="white"/>
<path fill-rule="evenodd" clip-rule="evenodd" d="M151.083 72.9099C148.966 82.7593 143.057 92.7715 133.96 100.725L100.007 130.412C90.9105 138.365 80.1991 142.886 70.1553 143.669C60.1111 144.453 50.5572 141.491 44.2176 134.24L48.0786 130.865C53.1086 136.617 60.9183 139.246 69.7563 138.556C78.5946 137.866 88.2838 133.849 96.6311 126.551L130.584 96.8639C138.932 89.5655 144.206 80.4992 146.069 71.832C147.932 63.1651 146.37 55.0745 141.34 49.3217L145.201 45.9458C151.541 53.1965 153.201 63.0603 151.083 72.9099Z" fill="#FF5065"/>
</g>
<path opacity="0.8" d="M74.8067 82.1787C73.2079 80.3501 73.3941 77.5716 75.2227 75.9727L98.0318 56.0297C99.8604 54.4309 102.639 54.6171 104.238 56.4457V56.4457C105.837 58.2744 105.65 61.0529 103.822 62.6517L81.0127 82.5947C79.184 84.1936 76.4055 84.0073 74.8067 82.1787V82.1787Z" fill="white"/>
<path opacity="0.8" d="M109.447 55.7451C107.848 53.9165 108.034 51.138 109.863 49.5392V49.5392C111.691 47.9403 114.47 48.1266 116.069 49.9552V49.9552C117.668 51.7838 117.481 54.5623 115.653 56.1611V56.1611C113.824 57.76 111.046 57.5737 109.447 55.7451V55.7451Z" fill="white"/>
<path fill-rule="evenodd" clip-rule="evenodd" d="M48.8625 68.8393L80.5009 41.1764C99.0629 24.9467 127.559 27.8114 144.188 46.8311C160.818 65.8509 159.854 94.4739 141.292 110.704L109.653 138.367C91.0914 154.596 62.5958 151.731 45.9659 132.712C29.3361 113.692 30.3004 85.069 48.8625 68.8393ZM52.2384 72.7003C35.9841 86.9122 34.9044 112.269 49.827 129.336C64.7495 146.403 90.0233 148.717 106.278 134.505L137.916 106.843C154.17 92.6306 155.25 67.2741 140.327 50.207C125.405 33.14 100.131 30.8255 83.8767 45.0374L52.2384 72.7003Z" fill="white"/>
</g>
<g filter="url(#filter1_d_5_256)">
<path d="M159.491 77.4396C160.328 76.6451 142.739 93.6858 132.223 103.873C130.542 105.501 132.322 108.251 134.503 107.403L177.39 90.7262C178.286 90.3779 178.84 89.4762 178.748 88.5196L176.56 65.9941C176.388 64.2152 174.248 63.4103 172.953 64.6417C167.882 69.4618 158.623 78.264 159.491 77.4396Z" fill="#34C88A"/>
<path fill-rule="evenodd" clip-rule="evenodd" d="M173.998 67.3477L161.413 79.3123C161.381 79.3441 161.342 79.3827 161.314 79.4096C161.225 79.4968 161.071 79.647 160.86 79.8518C160.438 80.2628 159.777 80.904 158.929 81.7266C157.233 83.3721 154.784 85.7464 151.98 88.4636C147.03 93.2611 140.974 99.1284 136.005 103.942L176.039 88.3744L173.998 67.3477ZM171.105 62.6984C174.032 59.9156 178.842 61.7498 179.229 65.735L181.416 88.2605C181.625 90.4129 180.377 92.4415 178.362 93.2252L135.475 109.902C130.632 111.785 126.526 105.658 130.357 101.947C135.615 96.8533 142.641 90.0466 148.248 84.6126C151.052 81.8956 153.5 79.522 155.195 77.8775C156.043 77.0551 156.702 76.4157 157.122 76.0071C157.314 75.8207 157.453 75.6844 157.539 75.601C157.539 75.5997 157.539 75.5985 157.539 75.5972C157.553 75.5834 157.571 75.5661 157.574 75.5624L157.594 75.5433C157.593 75.5447 157.592 75.5452 157.594 75.5433L171.105 62.6984ZM157.539 75.6067C157.463 79.2169 161.032 79.4965 161.245 79.4655C161.209 79.4948 161.122 79.5625 161.058 79.6093C160.652 79.8435 157.46 79.1287 157.097 76.2645C157.238 76.0059 157.45 75.7086 157.496 75.6543C157.508 75.6404 157.525 75.6221 157.539 75.6067Z" fill="white"/>
<path d="M167.706 117.067C160.846 117.027 143.432 116.658 131.6 116.392C129.213 116.339 128.699 113.018 130.953 112.232L171.915 97.9581C172.641 97.7053 173.446 97.8599 174.027 98.3635L189.867 112.106C191.269 113.322 190.572 115.601 188.726 115.792C183.426 116.341 174.7 117.108 167.706 117.067Z" fill="#34C88A"/>
<path fill-rule="evenodd" clip-rule="evenodd" d="M187.107 113.261C181.786 113.789 174.007 114.422 167.721 114.386C161.447 114.349 146.272 114.035 134.664 113.779L172.504 100.592L187.107 113.261ZM172.797 100.49L172.797 100.49ZM189.002 118.46C193.243 118.021 194.754 112.796 191.625 110.081L175.784 96.3381C174.478 95.2051 172.665 94.8572 171.033 95.4261L130.071 109.7C125.044 111.452 126.116 118.952 131.54 119.073C143.361 119.338 160.802 119.708 167.69 119.748C174.84 119.79 183.689 119.009 189.002 118.46Z" fill="white"/>
<path d="M170.418 86.0868C162.024 89.8083 143.831 100.573 138.507 103.751C137.634 104.273 137.258 105.334 137.596 106.293L138.712 109.462C139.07 110.478 140.11 111.074 141.164 110.851C148.009 109.398 172.017 104.299 177.246 103.132C180.91 102.314 184.374 101.771 186.562 101.466C187.822 101.291 188.688 100.085 188.423 98.841L184.785 81.8061C184.491 80.4282 182.97 79.7034 181.715 80.342L170.418 86.0868Z" fill="#FF5065"/>
<path fill-rule="evenodd" clip-rule="evenodd" d="M182.308 83.0483L171.57 88.5092L171.504 88.538C163.484 92.0942 146.09 102.352 140.272 105.821L141.085 108.127C148.51 106.55 171.565 101.652 176.662 100.515C180.15 99.7364 183.45 99.2023 185.69 98.8815L182.308 83.0483ZM180.499 77.9519C183.325 76.515 186.745 78.146 187.407 81.2461L191.045 98.281C191.644 101.085 189.695 103.738 186.932 104.122C184.786 104.42 181.399 104.952 177.83 105.749C172.583 106.92 148.555 112.023 141.721 113.474C139.324 113.982 136.98 112.615 136.183 110.353L135.067 107.184C134.31 105.037 135.149 102.634 137.133 101.449C142.381 98.3157 160.659 87.4944 169.265 83.6649L180.499 77.9519Z" fill="white"/>
<path d="M41.3057 163.507C40.4693 164.302 58.0584 147.261 68.5745 137.074C70.2554 135.446 68.4751 132.696 66.294 133.544L23.4072 150.22C22.5114 150.569 21.9567 151.47 22.0496 152.427L24.2368 174.953C24.4095 176.731 26.5491 177.536 27.8445 176.305C32.9147 171.485 42.1737 162.683 41.3057 163.507Z" fill="#FF5065"/>
<path fill-rule="evenodd" clip-rule="evenodd" d="M26.7993 173.599L39.3843 161.634C39.4154 161.603 39.4542 161.565 39.4816 161.538L39.4828 161.537C39.5719 161.45 39.7261 161.3 39.9367 161.095C40.3593 160.684 41.0198 160.043 41.8678 159.22C43.5639 157.575 46.0132 155.2 48.8169 152.483C53.7672 147.686 59.8234 141.818 64.7925 137.005L24.7577 152.572L26.7993 173.599ZM29.6919 178.248C26.7647 181.031 21.955 179.197 21.568 175.212L19.3808 152.686C19.1718 150.534 20.42 148.505 22.4355 147.721L65.3222 131.045C70.1656 129.161 74.2714 135.289 70.4402 139C65.1821 144.093 58.156 150.9 52.549 156.334C49.7454 159.051 47.297 161.425 45.6018 163.069C44.7541 163.892 44.0955 164.531 43.6753 164.94C43.4835 165.126 43.3436 165.262 43.2583 165.346C43.2583 165.347 43.2583 165.348 43.2582 165.349C43.2443 165.363 43.2266 165.381 43.2228 165.384L43.2027 165.403C43.2042 165.402 43.2047 165.401 43.2027 165.403L29.6919 178.248ZM43.2584 165.34C43.3338 161.73 39.765 161.45 39.5522 161.481C39.5882 161.452 39.6747 161.384 39.7392 161.337C40.1452 161.103 43.3372 161.818 43.7 164.682C43.5596 164.941 43.3471 165.238 43.3011 165.292C43.2889 165.306 43.2724 165.325 43.2584 165.34Z" fill="white"/>
<path d="M33.0913 123.88C39.9512 123.92 57.3652 124.289 69.1972 124.554C71.5843 124.608 72.0985 127.929 69.8438 128.715L28.882 142.989C28.1564 143.241 27.3509 143.087 26.7705 142.583L10.9297 128.841C9.52761 127.624 10.225 125.345 12.0713 125.154C17.3706 124.606 26.0975 123.839 33.0913 123.88Z" fill="#FF5065"/>
<path fill-rule="evenodd" clip-rule="evenodd" d="M13.6898 127.685C19.0114 127.158 26.7896 126.524 33.0756 126.561C39.3498 126.598 54.5249 126.912 66.1334 127.168L28.293 140.354L13.6898 127.685ZM27.9997 140.457L28.0004 140.456ZM11.7954 122.487C7.55417 122.926 6.04317 128.151 9.17255 130.866L25.0133 144.609C26.3193 145.742 28.1316 146.089 29.7643 145.521L70.7261 131.247C75.7534 129.495 74.6809 121.995 69.2572 121.874C57.4359 121.609 39.9947 121.239 33.1069 121.198C25.9575 121.157 17.1076 121.938 11.7954 122.487Z" fill="white"/>
<path d="M30.3794 154.86C38.773 151.138 56.9657 140.374 62.2897 137.195C63.1632 136.674 63.5393 135.613 63.2012 134.653L62.0849 131.485C61.7269 130.469 60.6867 129.872 59.6328 130.096C52.788 131.549 28.7804 136.648 23.5509 137.815C19.8868 138.633 16.4228 139.176 14.2346 139.48C12.9752 139.656 12.1088 140.862 12.3744 142.106L16.0123 159.141C16.3065 160.518 17.8266 161.243 19.0824 160.605L30.3794 154.86Z" fill="#34C88A"/>
<path fill-rule="evenodd" clip-rule="evenodd" d="M18.4888 157.898L29.2275 152.437L29.2926 152.409C37.3133 148.852 54.7069 138.594 60.5248 135.126L59.7124 132.82C52.287 134.396 29.2319 139.295 24.1349 140.432C20.647 141.21 17.3472 141.744 15.1076 142.065L18.4888 157.898ZM20.2978 162.995C17.4722 164.432 14.0521 162.801 13.3901 159.701L9.75222 142.666C9.15341 139.862 11.1021 137.209 13.8652 136.825C16.0114 136.526 19.3982 135.994 22.967 135.198C28.2143 134.027 52.2426 128.923 59.0761 127.473C61.4728 126.964 63.817 128.332 64.6139 130.594L65.7302 133.762C66.4866 135.91 65.6479 138.313 63.6643 139.497C58.416 142.631 40.1381 153.452 31.5322 157.282L20.2978 162.995Z" fill="white"/>
<path d="M40.2411 139.754C32.7396 118.461 43.92 95.1178 65.2133 87.6163L106.66 73.0149C127.953 65.5134 151.296 76.6938 158.797 97.9871C166.299 119.28 155.118 142.623 133.825 150.125L92.3786 164.726C71.0854 172.227 47.7426 161.047 40.2411 139.754Z" fill="#764123"/>
<mask id="mask1_5_256" style="mask-type:alpha" maskUnits="userSpaceOnUse" x="37" y="68" width="125" height="101">
<path d="M40.2411 139.754C32.3645 117.396 43.2409 93.1901 64.5342 85.6886L105.981 71.0872C127.274 63.5857 150.921 75.6292 158.797 97.9871C166.674 120.345 155.797 144.551 134.504 152.052L93.0578 166.654C71.7645 174.155 48.1177 162.112 40.2411 139.754Z" fill="#83553B"/>
</mask>
<g mask="url(#mask1_5_256)">
<path fill-rule="evenodd" clip-rule="evenodd" d="M34.9146 106.166C40.7883 97.422 50.4077 89.9894 62.3241 85.7913L106.803 70.1215C118.72 65.9234 130.874 65.6854 140.931 68.8172C150.989 71.9491 159.119 78.5285 162.465 88.0269L157.407 89.8088C154.752 82.2726 148.187 76.6932 139.337 73.9374C130.486 71.1816 119.52 71.3272 108.585 75.1795L64.106 90.8493C53.171 94.7016 44.5349 101.462 39.3662 109.157C34.1977 116.851 32.5793 125.314 35.2342 132.85L30.1762 134.632C26.83 125.133 29.0408 114.911 34.9146 106.166Z" fill="#FF5065"/>
<path fill-rule="evenodd" clip-rule="evenodd" d="M36.2729 110.022C42.1466 101.277 51.766 93.8448 63.6823 89.6467L108.161 73.977C120.078 69.7789 132.232 69.5409 142.289 72.6727C152.347 75.8045 160.477 82.3839 163.823 91.8824L158.765 93.6643C156.111 86.1281 149.545 80.5486 140.695 77.7929C131.845 75.037 120.878 75.1826 109.943 79.035L65.4642 94.7047C54.5293 98.5571 45.8932 105.317 40.7245 113.012C35.556 120.706 33.9375 129.169 36.5925 136.705L31.5345 138.487C28.1882 128.989 30.399 118.766 36.2729 110.022Z" fill="white"/>
<path fill-rule="evenodd" clip-rule="evenodd" d="M37.6312 113.877C43.5049 105.133 53.1243 97.7003 65.0406 93.5022L109.52 77.8325C121.436 73.6344 133.59 73.3964 143.648 76.5282C153.706 79.66 161.836 86.2394 165.182 95.7379L160.124 97.5198C157.469 89.9836 150.903 84.4041 142.053 81.6484C133.203 78.8925 122.237 79.0381 111.302 82.8905L66.8225 98.5602C55.8876 102.413 47.2515 109.173 42.0828 116.867C36.9143 124.562 35.2958 133.025 37.9508 140.561L32.8928 142.343C29.5465 132.844 31.7573 122.622 37.6312 113.877Z" fill="#34C88A"/>
<path fill-rule="evenodd" clip-rule="evenodd" d="M163.16 131.914C157.286 140.658 147.667 148.091 135.75 152.289L91.2713 167.959C79.355 172.157 67.2009 172.395 57.1434 169.263C47.0855 166.131 38.9555 159.552 35.6093 150.054L40.6673 148.272C43.3222 155.808 49.8876 161.387 58.7377 164.143C67.5881 166.899 78.5545 166.753 89.4894 162.901L133.969 147.231C144.903 143.379 153.54 136.619 158.708 128.924C163.877 121.23 165.495 112.767 162.84 105.231L167.898 103.449C171.245 112.947 169.034 123.17 163.16 131.914Z" fill="#34C88A"/>
<path fill-rule="evenodd" clip-rule="evenodd" d="M161.802 128.059C155.928 136.803 146.309 144.236 134.392 148.434L89.913 164.104C77.9967 168.302 65.8426 168.54 55.7851 165.408C45.7272 162.276 37.5973 155.697 34.251 146.198L39.309 144.416C41.9639 151.952 48.5293 157.532 57.3794 160.288C66.2298 163.043 77.1962 162.898 88.1311 159.046L132.61 143.376C143.545 139.523 152.181 132.763 157.35 125.069C162.518 117.374 164.137 108.911 161.482 101.375L166.54 99.5934C169.886 109.092 167.675 119.314 161.802 128.059Z" fill="white"/>
<path fill-rule="evenodd" clip-rule="evenodd" d="M160.443 124.203C154.57 132.948 144.95 140.38 133.034 144.578L88.5548 160.248C76.6384 164.446 64.4844 164.684 54.4268 161.552C44.369 158.421 36.239 151.841 32.8928 142.343L37.9507 140.561C40.6057 148.097 47.1711 153.676 56.0212 156.432C64.8715 159.188 75.8379 159.042 86.7729 155.19L131.252 139.52C142.187 135.668 150.823 128.908 155.992 121.213C161.16 113.519 162.779 105.056 160.124 97.5198L165.182 95.7379C168.528 105.236 166.317 115.459 160.443 124.203Z" fill="#FF5065"/>
</g>
<path opacity="0.8" d="M82.777 103.64C81.9331 101.245 83.1909 98.6189 85.5864 97.775L115.466 87.2484C117.862 86.4045 120.488 87.6623 121.332 90.0578V90.0578C122.176 92.4532 120.918 95.0793 118.522 95.9232L88.6425 106.45C86.247 107.294 83.6209 106.036 82.777 103.64V103.64Z" fill="white"/>
<path opacity="0.8" d="M126.662 91.3963C125.818 89.0008 127.076 86.3748 129.471 85.5308V85.5308C131.867 84.6869 134.493 85.9447 135.337 88.3402V88.3402C136.181 90.7357 134.923 93.3618 132.528 94.2057V94.2057C130.132 95.0496 127.506 93.7918 126.662 91.3963V91.3963Z" fill="white"/>
<path fill-rule="evenodd" clip-rule="evenodd" d="M62.7522 80.6306L104.199 66.0292C128.515 57.4626 155.077 71.2892 163.855 96.2052C172.633 121.121 160.603 148.544 136.286 157.11L94.8397 171.712C70.5233 180.278 43.9609 166.452 35.1831 141.536C26.4053 116.62 38.4358 89.1971 62.7522 80.6306ZM64.5341 85.6886C43.2409 93.1901 32.3645 117.396 40.2411 139.754C48.1177 162.112 71.7645 174.155 93.0578 166.654L134.504 152.052C155.797 144.551 166.674 120.345 158.797 97.9871C150.921 75.6292 127.274 63.5857 105.981 71.0872L64.5341 85.6886Z" fill="white"/>
</g>
</g>
<defs>
<filter id="filter0_d_5_256" x="-18.7254" y="-4" width="230.234" height="197.415" filterUnits="userSpaceOnUse" color-interpolation-filters="sRGB">
<feFlood flood-opacity="0" result="BackgroundImageFix"/>
<feColorMatrix in="SourceAlpha" type="matrix" values="0 0 0 0 0 0 0 0 0 0 0 0 0 0 0 0 0 0 127 0" result="hardAlpha"/>
<feOffset dy="4"/>
<feGaussianBlur stdDeviation="4"/>
<feComposite in2="hardAlpha" operator="out"/>
<feColorMatrix type="matrix" values="0 0 0 0 0 0 0 0 0 0 0 0 0 0 0 0 0 0 0.15 0"/>
<feBlend mode="normal" in2="BackgroundImageFix" result="effect1_dropShadow_5_256"/>
<feBlend mode="normal" in="SourceGraphic" in2="effect1_dropShadow_5_256" result="shape"/>
</filter>
<filter id="filter1_d_5_256" x="-19" y="22.2688" width="238.866" height="204.041" filterUnits="userSpaceOnUse" color-interpolation-filters="sRGB">
<feFlood flood-opacity="0" result="BackgroundImageFix"/>
<feColorMatrix in="SourceAlpha" type="matrix" values="0 0 0 0 0 0 0 0 0 0 0 0 0 0 0 0 0 0 127 0" result="hardAlpha"/>
<feOffset dy="4"/>
<feGaussianBlur stdDeviation="4"/>
<feComposite in2="hardAlpha" operator="out"/>
<feColorMatrix type="matrix" values="0 0 0 0 0 0 0 0 0 0 0 0 0 0 0 0 0 0 0.15 0"/>
<feBlend mode="normal" in2="BackgroundImageFix" result="effect1_dropShadow_5_256"/>
<feBlend mode="normal" in="SourceGraphic" in2="effect1_dropShadow_5_256" result="shape"/>
</filter>
<clipPath id="clip0_5_256">
<rect width="200" height="200" fill="white"/>
</clipPath>
</defs>
</svg>
